<?xml version="1.0" encoding="utf-8"?><svg viewBox="0 0 512.01 512.01" xmlns="http://www.w3.org/2000/svg" xmlns:xlink="http://www.w3.org/1999/xlink"><style>:root>svg{display:none}:root>svg:target{display:block}</style><svg viewBox="0 0 18 14" id="arrow-down" xmlns="http://www.w3.org/2000/svg"><path fill-rule="evenodd" d="M1 7h16m-6-6l6 6-6 6"/></svg><svg viewBox="0 0 92 92" id="cart" xmlns="http://www.w3.org/2000/svg"><path d="M91.8 27.3L81.1 61c-.8 2.4-2.9 4-5.4 4H34.4c-2.4 0-4.7-1.5-5.5-3.7L13.1 19H4c-2.2 0-4-1.8-4-4s1.8-4 4-4h11.9c1.7 0 3.2 1.1 3.8 2.7L36 57h38l8.5-27H35.4c-2.2 0-4-1.8-4-4s1.8-4 4-4H88c1.3 0 2.5.7 3.2 1.7.8 1 1 2.4.6 3.6zm-55.4 43c-1.7 0-3.4.7-4.6 1.9-1.2 1.2-1.9 2.9-1.9 4.6 0 1.7.7 3.4 1.9 4.6 1.2 1.2 2.9 1.9 4.6 1.9s3.4-.7 4.6-1.9c1.2-1.2 1.9-2.9 1.9-4.6 0-1.7-.7-3.4-1.9-4.6-1.2-1.2-2.9-1.9-4.6-1.9zm35.9 0c-1.7 0-3.4.7-4.6 1.9s-1.9 2.9-1.9 4.6c0 1.7.7 3.4 1.9 4.6 1.2 1.2 2.9 1.9 4.6 1.9 1.7 0 3.4-.7 4.6-1.9 1.2-1.2 1.9-2.9 1.9-4.6 0-1.7-.7-3.4-1.9-4.6s-2.9-1.9-4.6-1.9z"/></svg><svg viewBox="0 0 18 14" id="check" xmlns="http://www.w3.org/2000/svg"><path d="M1 7l6 6L17 1"/></svg><svg viewBox="0 0 64 64" id="chevron" xmlns="http://www.w3.org/2000/svg"><path d="M37.9 46L24.1 32.3l13.8-13.7 2 2-11.8 11.7L39.9 44l-2 2"/></svg><svg viewBox="0 0 16 16" id="close" xmlns="http://www.w3.org/2000/svg"><path d="M9.175 8l6.075-6.075A.833.833 0 0014.075.75L8 6.825 1.925.742A.833.833 0 00.75 1.917L6.825 8 .742 14.075a.834.834 0 101.175 1.175L8 9.175l6.075 6.075a.833.833 0 001.175-1.175L9.175 8z"/></svg><svg viewBox="0 0 32 32" id="location" xmlns="http://www.w3.org/2000/svg"><path d="M16 2A11.013 11.013 0 005 13a10.889 10.889 0 002.216 6.6s.3.395.349.452L16 30l8.439-9.953c.044-.053.345-.447.345-.447l.001-.003A10.885 10.885 0 0027 13 11.013 11.013 0 0016 2zm0 15a4 4 0 110-8 4 4 0 010 8z"/></svg><svg viewBox="0 0 20 16" id="mail" xmlns="http://www.w3.org/2000/svg"><path fill-rule="evenodd" clip-rule="evenodd" d="M18.333.5C19.253.5 20 1.246 20 2.167v11.666c0 .92-.746 1.667-1.667 1.667H1.667C.747 15.5 0 14.754 0 13.833V2.167C0 1.247.746.5 1.667.5h16.666zM7.168 9.328l-4.91 4.852h15.325l-4.857-4.802L10 11.265 7.168 9.328zM18.64 5.292l-4.796 3.316 4.796 4.736V5.292zm-17.279.061v7.836l4.686-4.631-4.686-3.205zm16.956-3.532H1.698a.358.358 0 00-.25.086.26.26 0 00-.085.222v1.62L10 9.656l8.644-5.965V2.199c.001-.134-.03-.231-.092-.292a.306.306 0 00-.234-.086h-.001z"/></svg><svg viewBox="0 0 32 32" id="phone" xmlns="http://www.w3.org/2000/svg"><path d="M13.216 8.064c-.382-4.394-4.966-6.55-5.16-6.638a.974.974 0 00-.582-.078c-5.292.878-6.088 3.958-6.12 4.086a.99.99 0 00.02.54c6.312 19.584 19.43 23.214 23.742 24.408.332.092.606.166.814.234a.99.99 0 00.722-.042c.132-.06 3.248-1.528 4.01-6.316a.997.997 0 00-.096-.612c-.068-.132-1.698-3.234-6.218-4.33a.977.977 0 00-.884.21c-1.426 1.218-3.396 2.516-4.246 2.65-5.698-2.786-8.88-8.132-9-9.146-.07-.57 1.236-2.572 2.738-4.2a.998.998 0 00.26-.766z"/></svg><svg baseProfile="tiny" version="1.2" viewBox="0 0 24 24" id="pin" xmlns="http://www.w3.org/2000/svg"><path d="M10.368 19.102c.349 1.049 1.011 1.086 1.478.086l5.309-11.375c.467-1.002.034-1.434-.967-.967L4.812 12.154c-1.001.467-.963 1.129.085 1.479L9 15l1.368 4.102z"/></svg><svg viewBox="0 0 512.005 512.005" id="search" xmlns="http://www.w3.org/2000/svg"><path d="M505.749 475.587l-145.6-145.6c28.203-34.837 45.184-79.104 45.184-127.317C405.333 90.926 314.41.003 202.666.003S0 90.925 0 202.669s90.923 202.667 202.667 202.667c48.213 0 92.48-16.981 127.317-45.184l145.6 145.6c4.16 4.16 9.621 6.251 15.083 6.251s10.923-2.091 15.083-6.251c8.341-8.341 8.341-21.824-.001-30.165zM202.667 362.669c-88.235 0-160-71.765-160-160s71.765-160 160-160 160 71.765 160 160-71.766 160-160 160z"/></svg><svg viewBox="0 0 24 24" id="telegram" xmlns="http://www.w3.org/2000/svg"><path d="M9.417 15.181l-.397 5.584c.568 0 .814-.244 1.109-.537l2.663-2.545 5.518 4.041c1.012.564 1.725.267 1.998-.931L23.93 3.821l.001-.001c.321-1.496-.541-2.081-1.527-1.714l-21.29 8.151c-1.453.564-1.431 1.374-.247 1.741l5.443 1.693L18.953 5.78c.595-.394 1.136-.176.691.218z"/></svg><svg viewBox="0 0 32 32" id="triangle" xmlns="http://www.w3.org/2000/svg"><path d="M16.682 19.674c.01-.012.014-.028.024-.04l6.982-7.714c.39-.434.39-1.138 0-1.572-.004-.004-.008-.006-.012-.008a.936.936 0 00-.712-.34H8.998a.948.948 0 00-.722.352l-.004-.004a1.202 1.202 0 000 1.572l6.998 7.754a.928.928 0 001.412 0z"/></svg><svg viewBox="0 0 16 16" id="vk" xmlns="http://www.w3.org/2000/svg"><path d="M7.828 12.026h.956s.289-.032.436-.191c.136-.146.131-.42.131-.42s-.019-1.283.577-1.472c.587-.186 1.341 1.24 2.14 1.789.604.415 1.063.324 1.063.324l2.137-.03s1.118-.069.588-.948c-.043-.072-.309-.65-1.589-1.838-1.34-1.244-1.16-1.042.454-3.193.983-1.31 1.376-2.11 1.253-2.452-.117-.326-.84-.24-.84-.24l-2.404.014s-.178-.024-.311.055c-.129.078-.212.258-.212.258s-.381 1.014-.889 1.876c-1.071 1.819-1.5 1.915-1.675 1.802-.407-.263-.305-1.058-.305-1.622 0-1.763.267-2.498-.521-2.688-.262-.063-.454-.105-1.123-.112-.858-.009-1.585.003-1.996.204-.274.134-.485.433-.356.45.159.021.519.097.71.357.247.335.238 1.089.238 1.089s.142 2.075-.331 2.333c-.325.177-.77-.184-1.725-1.835-.489-.845-.859-1.78-.859-1.78s-.071-.174-.198-.267c-.154-.113-.37-.149-.37-.149l-2.286.014s-.343.01-.469.159c-.112.133-.009.407-.009.407s1.79 4.187 3.816 6.298c1.859 1.935 3.969 1.808 3.969 1.808z"/></svg><svg viewBox="0 0 16 16" id="whatsapp" xmlns="http://www.w3.org/2000/svg"><path d="M8.002 0h-.004C3.587 0 0 3.588 0 8a7.94 7.94 0 001.523 4.689l-.997 2.972 3.075-.983A7.93 7.93 0 008.002 16C12.413 16 16 12.411 16 8s-3.587-8-7.998-8zm4.655 11.297c-.193.545-.959.997-1.57 1.129-.418.089-.964.16-2.802-.602-2.351-.974-3.865-3.363-3.983-3.518-.113-.155-.95-1.265-.95-2.413s.583-1.707.818-1.947c.193-.197.512-.287.818-.287.099 0 .188.005.268.009.235.01.353.024.508.395.193.465.663 1.613.719 1.731.057.118.114.278.034.433-.075.16-.141.231-.259.367-.118.136-.23.24-.348.386-.108.127-.23.263-.094.498.136.23.606.997 1.298 1.613.893.795 1.617 1.049 1.876 1.157.193.08.423.061.564-.089.179-.193.4-.513.625-.828.16-.226.362-.254.574-.174.216.075 1.359.64 1.594.757.235.118.39.174.447.273.056.099.056.564-.137 1.11z"/></svg></svg>