<svg width="20" height="16" viewBox="0 0 20 16" fill="none" xmlns="http://www.w3.org/2000/svg">
<path fill-rule="evenodd" clip-rule="evenodd" d="M18.333 0.5C19.253 0.5 20 1.246 20 2.167V13.833C20 14.753 19.254 15.5 18.333 15.5H1.667C0.747 15.5 0 14.754 0 13.833V2.167C0 1.247 0.746 0.5 1.667 0.5H18.333ZM7.168 9.328L2.258 14.18H17.583L12.726 9.378L10 11.265L7.168 9.328ZM18.64 5.292L13.844 8.608L18.64 13.344V5.292ZM1.361 5.353V13.189L6.047 8.558L1.361 5.353ZM18.317 1.821H1.698C1.60675 1.81672 1.51731 1.84749 1.448 1.907C1.4172 1.93458 1.39343 1.96911 1.37864 2.00772C1.36386 2.04633 1.3585 2.0879 1.363 2.129V3.749L10 9.656L18.644 3.691V2.199C18.645 2.065 18.614 1.968 18.552 1.907C18.5212 1.87705 18.4845 1.85391 18.4442 1.83909C18.4038 1.82427 18.3609 1.81811 18.318 1.821H18.317Z" fill="black"/>
</svg>
